<?xml version="1.0" encoding="utf-8"?>
<!-- Generator: Adobe Illustrator 27.0.0, SVG Export Plug-In . SVG Version: 6.00 Build 0)  -->
<svg version="1.1" id="Layer_1" xmlns="http://www.w3.org/2000/svg" xmlns:xlink="http://www.w3.org/1999/xlink" x="0px" y="0px"
	 viewBox="0 0 248.02 92.06" style="enable-background:new 0 0 248.02 92.06;" xml:space="preserve">
<style type="text/css">
	.st0{fill:none;stroke:#3C2415;stroke-width:3;stroke-miterlimit:10;}
	.st1{fill:#94BEE2;stroke:#231F20;stroke-miterlimit:10;}
	.st2{fill:#4A5F74;}
	.st3{fill:#3C7286;}
	.st4{fill:#5099B2;}
	.st5{fill:#73ADC2;}
	.st6{fill:#B9D6E0;}
	.st7{fill:#96C2D1;}
	.st8{fill:#DCEBF0;}
</style>
<rect x="18.9" y="16.53" transform="matrix(0.9274 -0.3741 0.3741 0.9274 -13.6749 21.4018)" class="st0" width="58.78" height="58.78"/>
<path class="st1" d="M61.64,75.83H34.95c-9.14,0-16.55-7.41-16.55-16.55V32.58c0-9.14,7.41-16.55,16.55-16.55h26.69
	c9.14,0,16.55,7.41,16.55,16.55v26.69C78.19,68.41,70.78,75.83,61.64,75.83z"/>
<g>
	<path class="st2" d="M54.92,43.29l3.32,7.12c0.32,0.66,0.58,1.09,0.79,1.29s0.53,0.34,0.97,0.41c0.84,0.13,1.27,0.56,1.27,1.28
		c0,0.86-0.52,1.47-1.55,1.85S57,55.8,54.65,55.8c-2.65,0-4.61-0.11-5.89-0.33c-0.59-0.11-1.05-0.32-1.4-0.64s-0.52-0.71-0.52-1.17
		c0-0.35,0.09-0.62,0.27-0.82s0.52-0.37,1.01-0.54c0.55-0.19,0.83-0.5,0.83-0.95c0-0.79-0.47-1.25-1.42-1.39
		c-1.02-0.14-2.46-0.21-4.31-0.21c-1.56,0-2.49,0.09-2.79,0.28c-0.19,0.12-0.35,0.33-0.49,0.63s-0.21,0.6-0.21,0.88
		c0,0.26,0.05,0.42,0.15,0.5s0.42,0.2,0.98,0.38c0.71,0.21,1.07,0.63,1.07,1.27c0,1.39-1.67,2.09-5.01,2.09
		c-1.9,0-3.29-0.13-4.18-0.39c-0.82-0.25-1.23-0.79-1.23-1.62c0-0.36,0.09-0.64,0.27-0.84s0.51-0.38,0.98-0.54
		c0.76-0.27,1.34-0.65,1.73-1.13s0.95-1.53,1.68-3.12l2.48-5.43c0.91-1.99,1.53-3.48,1.84-4.47c0.31-0.99,0.47-1.96,0.48-2.91
		c0.01-1.01,0.07-1.71,0.18-2.1s0.36-0.78,0.75-1.15c0.81-0.82,1.84-1.23,3.09-1.23c1.18,0,2.31,0.46,3.39,1.39
		C49.88,33.5,52.06,37.18,54.92,43.29z M42.68,45.5h3.45c0.63,0,0.95-0.14,0.95-0.42c0-0.39-0.44-1.34-1.32-2.85
		c-0.4-0.69-0.7-1.15-0.91-1.39s-0.43-0.35-0.67-0.35c-0.42,0-0.77,0.39-1.05,1.18c-0.05,0.11-0.22,0.52-0.51,1.25
		c-0.49,1.2-0.74,1.91-0.74,2.14C41.87,45.36,42.14,45.5,42.68,45.5z"/>
	<path class="st2" d="M67.4,47.61c1.11,0,2.08,0.39,2.9,1.16c0.83,0.79,1.25,1.8,1.25,3.04c0,1.16-0.42,2.14-1.25,2.94
		c-0.82,0.77-1.79,1.16-2.9,1.16s-2.08-0.39-2.9-1.16c-0.83-0.8-1.25-1.79-1.25-2.99c0-1.22,0.42-2.21,1.25-2.99
		C65.32,48.01,66.28,47.63,67.4,47.61z"/>
</g>
<g>
	<path class="st3" d="M112.04,45.99l2.58,5.54c0.25,0.51,0.45,0.85,0.62,1s0.41,0.27,0.75,0.32c0.66,0.1,0.98,0.43,0.98,1
		c0,0.67-0.4,1.14-1.2,1.44c-0.8,0.29-2.11,0.44-3.94,0.44c-2.06,0-3.59-0.09-4.58-0.26c-0.46-0.08-0.82-0.25-1.09-0.5
		c-0.27-0.25-0.4-0.55-0.4-0.91c0-0.27,0.07-0.49,0.21-0.64c0.14-0.15,0.4-0.29,0.79-0.42c0.43-0.15,0.64-0.39,0.64-0.74
		c0-0.61-0.37-0.97-1.11-1.08c-0.79-0.11-1.91-0.16-3.35-0.16c-1.21,0-1.94,0.07-2.17,0.22c-0.15,0.09-0.27,0.25-0.38,0.49
		s-0.16,0.46-0.16,0.68c0,0.2,0.04,0.33,0.12,0.39c0.08,0.06,0.33,0.16,0.76,0.29c0.56,0.16,0.83,0.49,0.83,0.98
		c0,1.08-1.3,1.63-3.9,1.63c-1.48,0-2.56-0.1-3.25-0.3c-0.64-0.19-0.96-0.61-0.96-1.26c0-0.28,0.07-0.5,0.21-0.66
		c0.14-0.16,0.39-0.3,0.76-0.42c0.59-0.21,1.04-0.5,1.35-0.88c0.31-0.38,0.74-1.19,1.31-2.43l1.93-4.22
		c0.71-1.55,1.19-2.71,1.43-3.48c0.24-0.77,0.37-1.52,0.38-2.26c0.01-0.78,0.06-1.33,0.14-1.63c0.09-0.31,0.28-0.6,0.58-0.9
		c0.63-0.64,1.43-0.96,2.41-0.96c0.92,0,1.8,0.36,2.64,1.08C108.12,38.37,109.82,41.24,112.04,45.99z M102.52,47.71h2.68
		c0.49,0,0.74-0.11,0.74-0.33c0-0.3-0.34-1.04-1.03-2.21c-0.31-0.54-0.55-0.9-0.71-1.08s-0.34-0.27-0.52-0.27
		c-0.33,0-0.6,0.31-0.82,0.92c-0.04,0.08-0.17,0.41-0.4,0.97c-0.38,0.93-0.57,1.49-0.57,1.67C101.89,47.6,102.1,47.71,102.52,47.71z
		"/>
	<path class="st4" d="M124.13,41.91c0.52,0,0.78,0.37,0.78,1.11c0,0.01,0,0.09,0,0.23c-0.01,0.15-0.01,0.26-0.01,0.36
		c0,0.49,0.15,0.74,0.44,0.74c0.15,0,0.4-0.2,0.72-0.59c0.49-0.57,1.11-1.01,1.86-1.35c0.75-0.33,1.51-0.5,2.3-0.5
		c1.52,0,2.58,0.56,3.17,1.67c0.23,0.41,0.41,0.62,0.56,0.62c0.1,0,0.34-0.18,0.71-0.55c1.18-1.16,2.53-1.74,4.03-1.74
		c1.18,0,2.14,0.32,2.88,0.97c0.78,0.67,1.18,1.69,1.18,3.04c0,0.29-0.01,0.78-0.03,1.48c-0.02,0.24-0.03,0.95-0.03,2.15
		c0,0.77,0,1.3-0.01,1.61c-0.01,0.19-0.01,0.33-0.01,0.41c0,0.58,0.18,1.09,0.55,1.53c0.22,0.26,0.35,0.44,0.4,0.53
		c0.05,0.09,0.08,0.2,0.08,0.35c0,1.17-1.37,1.75-4.12,1.75c-1.21,0-2.19-0.15-2.93-0.44c-0.74-0.29-1.11-0.67-1.11-1.15
		c0-0.18,0.02-0.32,0.08-0.42c0.05-0.1,0.23-0.35,0.53-0.76c0.28-0.37,0.42-1.62,0.42-3.73c0-1.23-0.09-2.09-0.26-2.57
		c-0.2-0.57-0.6-0.86-1.2-0.86c-0.3,0-0.57,0.09-0.8,0.28s-0.39,0.42-0.46,0.7c-0.08,0.33-0.13,1.2-0.14,2.62
		c0.03,1.53,0.08,2.46,0.14,2.79s0.3,0.78,0.69,1.37c0.09,0.14,0.14,0.31,0.14,0.52c0,1.08-1.42,1.63-4.25,1.63
		c-1.7,0-2.85-0.13-3.45-0.38c-0.47-0.2-0.71-0.56-0.71-1.07c0-0.23,0.03-0.39,0.09-0.48c0.06-0.09,0.26-0.3,0.61-0.63
		c0.2-0.19,0.33-0.37,0.39-0.54c0.06-0.17,0.1-0.48,0.13-0.92c0.06-1,0.1-2.01,0.1-3.04c0-1.79-0.46-2.68-1.37-2.68
		c-0.68,0-1.09,0.38-1.22,1.15c-0.11,0.72-0.16,1.75-0.16,3.09c0,1,0.02,1.66,0.06,1.97s0.15,0.63,0.33,0.97
		c0.22,0.39,0.33,0.71,0.33,0.96c0,0.59-0.42,1-1.24,1.23c-0.9,0.25-1.9,0.37-2.98,0.37c-1.4,0-2.43-0.11-3.09-0.33
		c-0.66-0.22-0.98-0.58-0.98-1.06c0-0.18,0.04-0.34,0.13-0.46c0.09-0.13,0.28-0.33,0.59-0.6c0.41-0.37,0.65-0.89,0.71-1.54
		c0.1-1.13,0.15-2.3,0.15-3.51c0-0.87-0.04-1.47-0.13-1.81c-0.09-0.34-0.27-0.62-0.55-0.83c-0.27-0.21-0.45-0.37-0.53-0.48
		c-0.08-0.11-0.12-0.26-0.12-0.45c0-0.61,0.48-1.09,1.44-1.45C121.25,42.34,122.98,41.92,124.13,41.91z"/>
	<path class="st5" d="M151.13,41.91c0.52,0,0.78,0.37,0.78,1.11c0,0.01,0,0.09,0,0.23c-0.01,0.15-0.01,0.26-0.01,0.36
		c0,0.49,0.15,0.74,0.44,0.74c0.15,0,0.4-0.2,0.72-0.59c0.49-0.57,1.11-1.01,1.86-1.35c0.75-0.33,1.51-0.5,2.3-0.5
		c1.52,0,2.58,0.56,3.17,1.67c0.23,0.41,0.41,0.62,0.56,0.62c0.1,0,0.34-0.18,0.71-0.55c1.18-1.16,2.53-1.74,4.03-1.74
		c1.18,0,2.14,0.32,2.88,0.97c0.78,0.67,1.18,1.69,1.18,3.04c0,0.29-0.01,0.78-0.03,1.48c-0.02,0.24-0.03,0.95-0.03,2.15
		c0,0.77,0,1.3-0.01,1.61c-0.01,0.19-0.01,0.33-0.01,0.41c0,0.58,0.18,1.09,0.55,1.53c0.22,0.26,0.35,0.44,0.4,0.53
		c0.05,0.09,0.08,0.2,0.08,0.35c0,1.17-1.37,1.75-4.12,1.75c-1.21,0-2.19-0.15-2.93-0.44c-0.74-0.29-1.11-0.67-1.11-1.15
		c0-0.18,0.02-0.32,0.08-0.42c0.05-0.1,0.23-0.35,0.53-0.76c0.28-0.37,0.42-1.62,0.42-3.73c0-1.23-0.09-2.09-0.26-2.57
		c-0.2-0.57-0.6-0.86-1.2-0.86c-0.3,0-0.57,0.09-0.8,0.28s-0.39,0.42-0.46,0.7c-0.08,0.33-0.13,1.2-0.14,2.62
		c0.03,1.53,0.08,2.46,0.14,2.79s0.3,0.78,0.69,1.37c0.09,0.14,0.14,0.31,0.14,0.52c0,1.08-1.42,1.63-4.25,1.63
		c-1.71,0-2.85-0.13-3.45-0.38c-0.47-0.2-0.71-0.56-0.71-1.07c0-0.23,0.03-0.39,0.09-0.48c0.06-0.09,0.26-0.3,0.61-0.63
		c0.2-0.19,0.33-0.37,0.39-0.54c0.06-0.17,0.1-0.48,0.13-0.92c0.06-1,0.1-2.01,0.1-3.04c0-1.79-0.46-2.68-1.37-2.68
		c-0.68,0-1.09,0.38-1.22,1.15c-0.11,0.72-0.16,1.75-0.16,3.09c0,1,0.02,1.66,0.06,1.97s0.15,0.63,0.33,0.97
		c0.22,0.39,0.33,0.71,0.33,0.96c0,0.59-0.42,1-1.24,1.23c-0.9,0.25-1.9,0.37-2.98,0.37c-1.4,0-2.43-0.11-3.09-0.33
		c-0.66-0.22-0.98-0.58-0.98-1.06c0-0.18,0.04-0.34,0.13-0.46c0.09-0.13,0.28-0.33,0.59-0.6c0.41-0.37,0.65-0.89,0.71-1.54
		c0.1-1.13,0.15-2.3,0.15-3.51c0-0.87-0.04-1.47-0.13-1.81c-0.09-0.34-0.27-0.62-0.55-0.83c-0.27-0.21-0.45-0.37-0.53-0.48
		c-0.08-0.11-0.12-0.26-0.12-0.45c0-0.61,0.48-1.09,1.44-1.45C148.25,42.34,149.98,41.92,151.13,41.91z"/>
	<path class="st5" d="M179.3,41.8c1.59,0,2.93,0.4,4.03,1.2c0.58,0.43,0.99,0.92,1.22,1.47s0.35,1.31,0.35,2.28l-0.03,2.04
		c0,1.41,0.1,2.33,0.3,2.75c0.1,0.2,0.2,0.33,0.29,0.38c0.09,0.05,0.28,0.1,0.57,0.15c0.29,0.05,0.44,0.24,0.44,0.57
		c0,0.44-0.18,0.89-0.53,1.37c-0.35,0.47-0.8,0.87-1.36,1.19c-0.68,0.4-1.4,0.6-2.15,0.6c-0.96,0-1.71-0.33-2.27-0.98
		c-0.19-0.24-0.37-0.36-0.53-0.36c-0.18,0-0.42,0.11-0.72,0.34c-0.91,0.67-1.95,1-3.1,1c-1.19,0-2.16-0.26-2.9-0.77
		c-0.48-0.34-0.87-0.78-1.15-1.32c-0.28-0.54-0.42-1.11-0.42-1.7c0-0.95,0.38-1.79,1.15-2.52c1.19-1.15,2.98-1.73,5.36-1.74
		c0.53,0,0.86-0.05,1-0.16s0.21-0.35,0.21-0.73c0-0.97-0.1-1.67-0.3-2.1c-0.2-0.43-0.53-0.65-0.98-0.65c-0.27,0-0.52,0.08-0.73,0.25
		c-0.21,0.16-0.48,0.46-0.8,0.9c-0.81,1.16-1.66,1.74-2.54,1.74c-0.45,0-0.81-0.13-1.09-0.4c-0.28-0.26-0.42-0.61-0.42-1.04
		c0-0.44,0.17-0.88,0.53-1.31c0.35-0.44,0.83-0.82,1.43-1.15C175.79,42.24,177.51,41.8,179.3,41.8z M178.39,49.72
		c-0.4,0-0.75,0.16-1.05,0.49c-0.3,0.33-0.44,0.72-0.44,1.18c0,0.44,0.1,0.79,0.31,1.06c0.21,0.27,0.49,0.4,0.83,0.4
		c0.73,0,1.09-0.62,1.09-1.85c0-0.5-0.05-0.84-0.16-1.01C178.88,49.82,178.68,49.73,178.39,49.72z"/>
	<path class="st6" d="M193.76,41.9c0.48,0,0.78,0.07,0.88,0.21c0.1,0.14,0.2,0.57,0.28,1.31c0.05,0.4,0.19,0.6,0.42,0.6
		c0.18,0,0.36-0.13,0.52-0.4c0.73-1.14,1.68-1.71,2.86-1.71c0.83,0,1.51,0.27,2.04,0.81c0.26,0.26,0.46,0.6,0.63,1.02
		s0.25,0.81,0.25,1.2c0,0.43-0.1,0.87-0.3,1.32c-0.2,0.45-0.46,0.82-0.78,1.11c-0.58,0.56-1.3,0.83-2.15,0.83
		c-0.46,0-0.85-0.08-1.17-0.25s-0.73-0.5-1.24-1c-0.19-0.19-0.37-0.29-0.53-0.29c-0.25,0-0.42,0.14-0.5,0.43
		c-0.08,0.29-0.12,0.89-0.12,1.81c0,1.38,0.05,2.32,0.15,2.82c0.06,0.27,0.15,0.46,0.27,0.57c0.11,0.1,0.36,0.21,0.73,0.32
		c0.82,0.25,1.23,0.67,1.23,1.29c0,0.37-0.13,0.7-0.4,0.98c-0.26,0.28-0.62,0.46-1.05,0.55c-0.88,0.18-2.16,0.27-3.86,0.27
		c-1.61,0-2.84-0.14-3.68-0.42c-0.75-0.25-1.12-0.7-1.12-1.33c0-0.47,0.27-0.9,0.82-1.27c0.26-0.17,0.45-0.33,0.55-0.47
		c0.1-0.14,0.17-0.33,0.21-0.58c0.15-0.83,0.22-2.37,0.22-4.61c0-0.41-0.05-0.7-0.14-0.88c-0.09-0.18-0.27-0.32-0.55-0.43
		c-0.65-0.25-0.97-0.62-0.97-1.11c0-0.44,0.22-0.81,0.67-1.13c0.45-0.31,1.19-0.63,2.24-0.94C191.58,42.12,192.77,41.91,193.76,41.9
		z"/>
	<path class="st7" d="M204.1,49.35c0.87,0,1.62,0.3,2.26,0.9c0.65,0.61,0.97,1.4,0.97,2.37c0,0.9-0.32,1.66-0.97,2.28
		c-0.64,0.6-1.39,0.9-2.26,0.9s-1.62-0.3-2.26-0.9c-0.65-0.62-0.97-1.39-0.97-2.32c0-0.95,0.32-1.72,0.97-2.32
		C202.49,49.66,203.24,49.36,204.1,49.35z"/>
	<path class="st8" d="M221.29,36.49c1.79,0,3.15,0.1,4.09,0.29c0.43,0.08,0.77,0.24,1.03,0.49s0.39,0.52,0.39,0.83
		c0,0.24-0.1,0.48-0.3,0.72c-0.29,0.37-0.44,0.64-0.44,0.81c0,0.33,0.26,0.85,0.78,1.57c0.34,0.46,0.66,0.7,0.96,0.7
		c0.19,0,0.38-0.07,0.56-0.21s0.42-0.39,0.71-0.76c0.36-0.45,0.53-0.8,0.53-1.07c0-0.16-0.02-0.29-0.06-0.37s-0.19-0.28-0.44-0.59
		c-0.18-0.21-0.27-0.49-0.27-0.85c0-1.03,1.39-1.54,4.18-1.54c1.58,0,2.6,0.07,3.08,0.22c0.3,0.09,0.55,0.26,0.75,0.52
		s0.29,0.53,0.29,0.82c0,0.37-0.11,0.66-0.34,0.85s-0.62,0.34-1.19,0.44c-0.52,0.1-0.97,0.3-1.35,0.59s-1.08,0.99-2.11,2.08
		c-1.24,1.34-2.01,2.33-2.32,2.96s-0.46,1.58-0.46,2.84c0,1.06,0.04,2.04,0.12,2.94c0.05,0.56,0.13,0.94,0.26,1.16
		s0.39,0.43,0.79,0.64c0.67,0.35,1,0.78,1,1.3c0,1.24-1.83,1.86-5.5,1.86c-1.5,0-2.93-0.15-4.27-0.44c-1.13-0.25-1.7-0.73-1.7-1.46
		c0-0.57,0.35-0.97,1.04-1.22c0.52-0.18,0.84-0.42,0.97-0.7c0.29-0.63,0.44-2.11,0.44-4.46c0-0.73-0.07-1.3-0.22-1.7
		s-0.46-0.93-0.96-1.58c-1.03-1.34-2.09-2.55-3.19-3.62c-0.47-0.46-0.93-0.78-1.37-0.94c-0.62-0.23-0.99-0.4-1.12-0.51
		c-0.25-0.22-0.38-0.51-0.38-0.88c0-0.61,0.46-1.05,1.38-1.32C217.59,36.62,219.13,36.49,221.29,36.49z"/>
</g>
</svg>
